# xmcd CD database file
#
# Track frame offsets:
#	150
#	19144
#	51603
#
# Disc length: 4440 seconds
#
# Revision: 0
# Processed by: cddbd v1.5PL3 Copyright (c) Steve Scherf et al.
# Submitted via: CDex 1.51
#
DISCID=24115603
DTITLE=hitomi - 心の旅人／SPEED☆STAR
DYEAR=2004
DGENRE=JPop
TTITLE0=心の旅人
TTITLE1=SPEED☆STAR
TTITLE2=データ
EXTD=YEAR: 2004
EXTT0=
EXTT1=
EXTT2=
PLAYORDER=
